<svg width="655" height="375" viewBox="0 0 655 375" fill="none" xmlns="http://www.w3.org/2000/svg">
<g clip-path="url(#clip0_4_81)">
<path d="M382 324.5H1C0.734784 324.5 0.480444 324.395 0.292908 324.207C0.105371 324.02 0 323.765 0 323.5C0 323.235 0.105371 322.98 0.292908 322.793C0.480444 322.605 0.734784 322.5 1 322.5H382C382.265 322.5 382.52 322.605 382.707 322.793C382.895 322.98 383 323.235 383 323.5C383 323.765 382.895 324.02 382.707 324.207C382.52 324.395 382.265 324.5 382 324.5Z" fill="#3F3D56"/>
<path d="M199.059 193.5C213.971 193.5 226.059 181.412 226.059 166.5C226.059 151.588 213.971 139.5 199.059 139.5C184.147 139.5 172.059 151.588 172.059 166.5C172.059 181.412 184.147 193.5 199.059 193.5Z" fill="#2F2E41"/>
<path d="M173.405 339.826L172.69 327.588L219.556 319.003L220.612 337.067L173.405 339.826Z" fill="#FFB8B8"/>
<path d="M175.675 318.641L177.055 342.245L162.194 343.113L159.945 304.648C161.897 304.534 163.852 304.806 165.699 305.447C167.545 306.089 169.248 307.087 170.708 308.387C172.169 309.686 173.359 311.261 174.212 313.02C175.064 314.779 175.561 316.689 175.675 318.641Z" fill="#2F2E41"/>
<path d="M193.789 339.714L186.004 349.185L145.768 323.666L157.257 309.688L193.789 339.714Z" fill="#FFB8B8"/>
<path d="M177.737 353.726L192.751 335.46L204.251 344.913L179.785 374.679C178.275 373.438 177.024 371.911 176.104 370.187C175.184 368.462 174.612 366.573 174.422 364.627C174.232 362.681 174.427 360.717 174.996 358.847C175.564 356.976 176.496 355.236 177.737 353.726Z" fill="#2F2E41"/>
<path d="M171.387 295.67L166.067 320.749C165.944 321.326 165.951 321.924 166.087 322.498C166.223 323.073 166.484 323.61 166.852 324.072C167.219 324.533 167.685 324.908 168.215 325.168C168.744 325.429 169.325 325.569 169.915 325.578L222.213 326.422C222.803 326.431 223.387 326.31 223.924 326.068C224.462 325.825 224.939 325.467 225.321 325.018C225.704 324.569 225.982 324.042 226.137 323.473C226.292 322.904 226.319 322.308 226.217 321.727L221.642 295.805C221.479 294.879 220.994 294.04 220.274 293.436C219.554 292.831 218.643 292.5 217.703 292.5H175.3C174.383 292.5 173.494 292.815 172.782 293.392C172.069 293.969 171.577 294.773 171.387 295.67Z" fill="#2F2E41"/>
<path d="M180.059 304.5C180.059 304.5 129.059 272.5 119.059 289.5C114.059 298 116.559 306.25 120.309 312.375C123.789 317.952 128.784 322.423 134.712 325.266L176.059 345.5L191.059 329.5L181.059 320.5L180.059 304.5Z" fill="#2F2E41"/>
<path d="M206.059 299.5C206.059 299.5 272.059 280.5 259.059 316.5C246.059 352.5 197.059 338.5 197.059 338.5L192.059 323.5L209.059 311.5L206.059 299.5Z" fill="#2F2E41"/>
<path d="M199.398 197.226C212.962 197.226 223.959 186.23 223.959 172.665C223.959 159.101 212.962 148.104 199.398 148.104C185.833 148.104 174.837 159.101 174.837 172.665C174.837 186.23 185.833 197.226 199.398 197.226Z" fill="#FFB8B8"/>
<path d="M200.685 303.469C190.479 303.314 180.325 301.977 170.427 299.482L170.135 299.402L156.429 236.357C155.197 230.817 156.035 225.018 158.786 220.054C161.537 215.09 166.011 211.305 171.362 209.414C187.892 203.483 205.908 203.124 222.662 208.39C228.283 210.201 233.015 214.066 235.913 219.212C238.812 224.358 239.663 230.408 238.297 236.154L222.989 299.35L222.773 299.452C216.411 302.466 208.456 303.469 200.685 303.469Z" fill="#CCCCCC"/>
<path d="M182.274 308.366C182.772 306.983 183.567 305.726 184.603 304.683C185.64 303.64 186.892 302.837 188.272 302.331C189.652 301.824 191.126 301.627 192.591 301.751C194.056 301.876 195.475 302.321 196.75 303.054L223.736 279.63L226.178 298.038L200.177 317.46C198.804 319.519 196.723 321.003 194.328 321.631C191.934 322.258 189.393 321.986 187.186 320.865C184.98 319.744 183.261 317.852 182.355 315.549C181.45 313.245 181.421 310.69 182.274 308.366Z" fill="#FFB8B8"/>
<path d="M208.012 313.476C207.573 313.475 207.136 313.411 206.716 313.285C206.033 313.086 205.408 312.727 204.892 312.237C204.377 311.747 203.986 311.141 203.753 310.469L200.496 301.24C200.191 300.387 200.152 299.462 200.385 298.587C200.617 297.711 201.11 296.927 201.798 296.338L238.567 274.264L224.073 209.603L224.442 209.514C224.592 209.477 239.442 206.097 245.527 222.324C249.789 233.689 265.559 258.401 264.446 275.101C264.235 278.441 262.904 281.612 260.668 284.103C258.432 286.594 255.422 288.259 252.124 288.828L210.736 312.541C209.957 313.145 208.999 313.474 208.012 313.476Z" fill="#CCCCCC"/>
<path d="M212.136 306.173C211.638 304.789 210.843 303.532 209.807 302.489C208.771 301.446 207.519 300.644 206.139 300.137C204.759 299.631 203.284 299.433 201.819 299.558C200.355 299.683 198.935 300.128 197.661 300.86L170.674 277.436L168.233 295.844L194.234 315.267C195.607 317.326 197.688 318.81 200.082 319.437C202.476 320.065 205.017 319.792 207.224 318.671C209.431 317.55 211.15 315.659 212.055 313.355C212.96 311.052 212.989 308.496 212.136 306.173Z" fill="#FFB8B8"/>
<path d="M189.106 313.476C188.12 313.474 187.162 313.145 186.382 312.541L141.994 290.828C138.696 290.259 135.686 288.594 133.45 286.103C131.214 283.612 129.883 280.441 129.672 277.101C128.559 260.401 147.329 233.689 151.591 222.324C157.676 206.097 172.526 209.476 172.677 209.514L173.045 209.603L155.551 276.264L195.32 296.338C196.008 296.927 196.501 297.711 196.733 298.587C196.966 299.462 196.927 300.387 196.622 301.24L193.365 310.469C193.132 311.141 192.741 311.747 192.226 312.237C191.71 312.727 191.085 313.086 190.402 313.285C189.982 313.411 189.545 313.475 189.106 313.476Z" fill="#CCCCCC"/>
<path d="M242.059 323.5H153.059C151.203 323.498 149.424 322.76 148.112 321.447C146.799 320.135 146.061 318.356 146.059 316.5V267.5C146.061 265.644 146.799 263.865 148.112 262.553C149.424 261.24 151.203 260.502 153.059 260.5H242.059C243.915 260.502 245.694 261.24 247.006 262.553C248.319 263.865 249.057 265.644 249.059 267.5V316.5C249.057 318.356 248.319 320.135 247.006 321.447C245.694 322.76 243.915 323.498 242.059 323.5Z" fill="#F9A826"/>
<path d="M197.559 298C200.873 298 203.559 295.314 203.559 292C203.559 288.686 200.873 286 197.559 286C194.245 286 191.559 288.686 191.559 292C191.559 295.314 194.245 298 197.559 298Z" fill="white"/>
<path d="M174.591 171.666C173.135 167.973 175.523 163.573 179.066 161.785C182.609 159.996 186.885 160.336 190.675 161.515C193.859 162.506 196.844 164.041 199.951 165.254C203.015 166.611 206.361 167.207 209.704 166.99C213.019 166.616 216.317 164.758 217.673 161.71C219.079 158.552 218.123 154.697 215.958 152.002C213.655 149.396 210.674 147.48 207.347 146.467C200.039 143.892 191.598 143.817 184.814 147.559C178.03 151.302 173.42 159.27 174.822 166.889" fill="#2F2E41"/>
<path d="M32.6625 312.818C33.8979 299.513 37.3102 286.501 42.763 274.301C44.2828 270.906 45.9555 267.586 47.7811 264.34C47.8727 264.171 47.8948 263.972 47.8427 263.786C47.7906 263.601 47.6684 263.443 47.5019 263.345C47.3354 263.248 47.1376 263.219 46.9502 263.265C46.7628 263.31 46.6006 263.427 46.4976 263.59C39.8583 275.411 35.2071 288.243 32.7298 301.573C32.0407 305.295 31.5228 309.044 31.176 312.818C31.0879 313.771 32.5749 313.765 32.6625 312.818Z" fill="#E6E6E6"/>
<path d="M51.3814 266.724C56.5809 266.724 60.7958 262.509 60.7958 257.31C60.7958 252.111 56.5809 247.896 51.3814 247.896C46.182 247.896 41.967 252.111 41.967 257.31C41.967 262.509 46.182 266.724 51.3814 266.724Z" fill="#F9A826"/>
<path d="M33.6255 313.069C34.427 304.437 36.6406 295.995 40.1781 288.081C41.1641 285.878 42.2492 283.724 43.4336 281.619C43.493 281.508 43.5073 281.38 43.4735 281.259C43.4397 281.139 43.3604 281.036 43.2524 280.973C43.1444 280.91 43.0161 280.891 42.8946 280.921C42.773 280.95 42.6678 281.026 42.601 281.132C38.2938 288.801 35.2763 297.125 33.6691 305.773C33.2221 308.188 32.8861 310.62 32.6611 313.069C32.604 313.686 33.5687 313.682 33.6255 313.069Z" fill="#E6E6E6"/>
<path d="M45.7694 283.165C49.1425 283.165 51.8769 280.431 51.8769 277.058C51.8769 273.685 49.1425 270.95 45.7694 270.95C42.3963 270.95 39.6618 273.685 39.6618 277.058C39.6618 280.431 42.3963 283.165 45.7694 283.165Z" fill="#F9A826"/>
<path d="M32.4083 312.492C27.7312 305.193 24.2845 297.175 22.2059 288.759C21.6286 286.416 21.1594 284.05 20.7983 281.662C20.7774 281.538 20.7095 281.428 20.6087 281.354C20.508 281.279 20.3823 281.247 20.2583 281.264C20.1343 281.281 20.0216 281.345 19.944 281.443C19.8664 281.541 19.8299 281.666 19.8424 281.79C21.163 290.486 23.9039 298.906 27.9554 306.713C29.0882 308.892 30.3191 311.016 31.648 313.085C31.9828 313.607 32.7411 313.011 32.4083 312.492Z" fill="#E6E6E6"/>
<path d="M19.8347 282.736C23.2078 282.736 25.9422 280.002 25.9422 276.629C25.9422 273.256 23.2078 270.521 19.8347 270.521C16.4616 270.521 13.7271 273.256 13.7271 276.629C13.7271 280.002 16.4616 282.736 19.8347 282.736Z" fill="#F9A826"/>
<path d="M13.6586 317.896V305.896C13.6599 304.703 14.1345 303.559 14.9781 302.715C15.8217 301.872 16.9655 301.397 18.1586 301.396H46.1586C47.3516 301.397 48.4954 301.872 49.3391 302.715C50.1827 303.559 50.6572 304.703 50.6586 305.896V317.896C50.6572 319.089 50.1827 320.233 49.3391 321.076C48.4954 321.92 47.3516 322.394 46.1586 322.396H18.1586C16.9655 322.394 15.8217 321.92 14.9781 321.076C14.1345 320.233 13.6599 319.089 13.6586 317.896Z" fill="#F2F2F2"/>
<path d="M314.409 331.901C314.409 338.478 309.077 341.467 302.5 341.467C295.923 341.467 290.591 338.478 290.591 331.901C290.591 325.324 293.238 317.649 302.5 320.296C311.762 316.326 314.409 325.324 314.409 331.901Z" fill="#FF6584"/>
<path d="M301.92 323.377C301.457 323.378 301.009 323.21 300.661 322.904C300.313 322.599 300.088 322.177 300.029 321.718C299.635 318.436 297.461 312.01 296.545 309.399L296.545 309.398C296.452 309.139 296.424 308.861 296.462 308.588C296.501 308.315 296.604 308.056 296.765 307.832C296.919 307.632 297.113 307.467 297.335 307.347C297.557 307.227 297.802 307.156 298.054 307.138C298.305 307.12 298.558 307.155 298.795 307.241C299.032 307.328 299.248 307.464 299.428 307.64C299.59 307.809 299.715 308.009 299.795 308.229C299.876 308.449 299.91 308.682 299.897 308.916C299.717 312.267 302.16 317.681 303.632 320.61C303.771 320.886 303.84 321.192 303.835 321.501C303.83 321.81 303.749 322.114 303.601 322.385C303.452 322.656 303.24 322.887 302.982 323.058C302.725 323.229 302.429 323.335 302.122 323.366C302.055 323.374 301.987 323.377 301.92 323.377Z" fill="#3F3D56"/>
<path d="M310.732 315.985C314.866 312.602 311.623 305.678 306.449 307.007C305.752 307.173 305.111 307.516 304.585 308.001C301.411 310.999 300.919 318.67 300.919 318.67C300.919 318.67 306.524 319.43 310.732 315.985Z" fill="#3F3D56"/>
</g>
<defs>
<clipPath id="clip0_4_81">
<rect width="655" height="413.68" fill="white" transform="translate(0 -39)"/>
</clipPath>
</defs>
</svg>
