<svg width="475" height="429" viewBox="0 0 475 429" fill="none" xmlns="http://www.w3.org/2000/svg">
<path d="M181.371 12C181.007 12.0012 180.658 12.2651 180.401 12.7338C180.144 13.2025 180 13.8377 180 14.5C180 15.1623 180.144 15.7975 180.401 16.2662C180.658 16.7349 181.007 16.9988 181.371 17H281.629C281.993 16.9988 282.342 16.7349 282.599 16.2662C282.856 15.7975 283 15.1623 283 14.5C283 13.8377 282.856 13.2025 282.599 12.7338C282.342 12.2651 281.993 12.0012 281.629 12H181.371Z" fill="#EDC27E"/>
<path d="M167.561 25C167.148 24.9986 166.751 25.2607 166.458 25.7285C166.166 26.1964 166.001 26.8317 166 27.4947C165.999 28.1578 166.162 28.7942 166.454 29.264C166.745 29.7339 167.141 29.9986 167.554 30H239.44C239.645 30.0006 239.847 29.9364 240.037 29.811C240.226 29.6856 240.398 29.5016 240.543 29.2694C240.688 29.0372 240.803 28.7614 240.881 28.4577C240.96 28.1541 241 27.8287 241 27.5C241 27.1713 240.96 26.8459 240.881 26.5423C240.803 26.2387 240.688 25.9629 240.543 25.7307C240.398 25.4985 240.226 25.3144 240.037 25.189C239.847 25.0637 239.645 24.9994 239.44 25H167.561Z" fill="#EDC27E"/>
<path d="M181.371 90C181.007 90.0012 180.658 90.2651 180.401 90.7338C180.144 91.2025 180 91.8377 180 92.5C180 93.1623 180.144 93.7975 180.401 94.2662C180.658 94.7349 181.007 94.9988 181.371 95H281.629C281.993 94.9988 282.342 94.7349 282.599 94.2662C282.856 93.7975 283 93.1623 283 92.5C283 91.8377 282.856 91.2025 282.599 90.7338C282.342 90.2651 281.993 90.0012 281.629 90H181.371Z" fill="#FEFEFE"/>
<path d="M167.561 103C167.148 102.999 166.751 103.261 166.458 103.729C166.166 104.196 166.001 104.832 166 105.495C165.999 106.158 166.162 106.794 166.454 107.264C166.745 107.734 167.141 107.999 167.554 108H239.44C239.645 108.001 239.847 107.936 240.037 107.811C240.226 107.686 240.398 107.502 240.543 107.269C240.688 107.037 240.803 106.761 240.881 106.458C240.96 106.154 241 105.829 241 105.5C241 105.171 240.96 104.846 240.881 104.542C240.803 104.239 240.688 103.963 240.543 103.731C240.398 103.498 240.226 103.314 240.037 103.189C239.847 103.064 239.645 102.999 239.44 103H167.561Z" fill="#FEFEFE"/>
<path d="M181.371 168C181.007 168.001 180.658 168.265 180.401 168.734C180.144 169.203 180 169.838 180 170.5C180 171.162 180.144 171.797 180.401 172.266C180.658 172.735 181.007 172.999 181.371 173H281.629C281.993 172.999 282.342 172.735 282.599 172.266C282.856 171.797 283 171.162 283 170.5C283 169.838 282.856 169.203 282.599 168.734C282.342 168.265 281.993 168.001 281.629 168H181.371Z" fill="#FEFEFE"/>
<path d="M167.561 181C167.148 180.999 166.751 181.261 166.458 181.729C166.166 182.196 166.001 182.832 166 183.495C165.999 184.158 166.162 184.794 166.454 185.264C166.745 185.734 167.141 185.999 167.554 186H239.44C239.645 186.001 239.847 185.936 240.037 185.811C240.226 185.686 240.398 185.502 240.543 185.269C240.688 185.037 240.803 184.761 240.881 184.458C240.96 184.154 241 183.829 241 183.5C241 183.171 240.96 182.846 240.881 182.542C240.803 182.239 240.688 181.963 240.543 181.731C240.398 181.498 240.226 181.314 240.037 181.189C239.847 181.064 239.645 180.999 239.44 181H167.561Z" fill="#FEFEFE"/>
<path d="M133.87 27.6072H133.863C133.685 27.6061 133.508 27.567 133.346 27.4925C133.184 27.418 133.039 27.3098 132.922 27.1751L126.225 19.4817C126.116 19.3572 126.033 19.2124 125.98 19.0557C125.927 18.899 125.906 18.7334 125.917 18.5683C125.928 18.4033 125.972 18.2421 126.045 18.094C126.119 17.9459 126.221 17.8137 126.346 17.7051C126.47 17.5965 126.615 17.5135 126.772 17.461C126.929 17.4084 127.094 17.3873 127.259 17.3988C127.424 17.4103 127.585 17.4543 127.733 17.5282C127.881 17.602 128.013 17.7044 128.121 17.8293L133.881 24.4464L151.174 5.03732C151.284 4.91367 151.417 4.81288 151.565 4.74072C151.714 4.66856 151.876 4.62645 152.041 4.61679C152.206 4.60713 152.371 4.63012 152.527 4.68444C152.683 4.73875 152.827 4.82334 152.95 4.93334C153.074 5.04334 153.174 5.17661 153.246 5.32551C153.318 5.47441 153.36 5.63603 153.369 5.80111C153.378 5.96619 153.355 6.1315 153.3 6.28757C153.246 6.44364 153.161 6.58741 153.051 6.71065L134.809 27.1862C134.691 27.3186 134.546 27.4245 134.385 27.4971C134.223 27.5696 134.048 27.6071 133.87 27.6072Z" fill="#EDC27E"/>
<path d="M134.024 41.0654C128.713 41.0654 123.62 38.9548 119.865 35.198C116.11 31.4411 114 26.3457 114 21.0327C114 15.7197 116.11 10.6243 119.865 6.86745C123.62 3.11059 128.713 1 134.024 1C134.207 1 134.382 1.07278 134.512 1.20233C134.641 1.33187 134.714 1.50758 134.714 1.69078C134.714 1.87399 134.641 2.04969 134.512 2.17924C134.382 2.30879 134.207 2.38157 134.024 2.38157C130.336 2.38163 126.732 3.47556 123.666 5.52501C120.601 7.57446 118.211 10.4874 116.8 13.8955C115.389 17.3035 115.02 21.0536 115.74 24.6716C116.459 28.2895 118.234 31.6128 120.842 34.2212C123.449 36.8296 126.771 38.6059 130.387 39.3255C134.003 40.0451 137.752 39.6758 141.158 38.2641C144.565 36.8524 147.476 34.4619 149.525 31.3947C151.573 28.3275 152.667 24.7215 152.667 21.0327C152.667 20.8495 152.739 20.6738 152.869 20.5443C152.998 20.4147 153.174 20.3419 153.357 20.3419C153.54 20.3419 153.716 20.4147 153.845 20.5443C153.975 20.6738 154.047 20.8495 154.047 21.0327C154.041 26.3439 151.93 31.4358 148.176 35.1914C144.422 38.9469 139.332 41.0594 134.024 41.0654Z" fill="#3F3D56"/>
<path d="M516 428.309C515.999 428.492 515.927 428.668 515.797 428.797C515.668 428.927 515.492 428.999 515.31 429H252.241C252.058 429 251.883 428.927 251.753 428.798C251.624 428.668 251.551 428.492 251.551 428.309C251.551 428.126 251.624 427.95 251.753 427.821C251.883 427.691 252.058 427.618 252.241 427.618H515.31C515.492 427.619 515.668 427.692 515.797 427.821C515.927 427.951 515.999 428.126 516 428.309Z" fill="#E6E6E6"/>
<path d="M284 59H132V60H284V59Z" fill="#FEFEFE"/>
<path d="M284 136H132V138H284V136Z" fill="#FEFEFE"/>
<path d="M284 214H132V215H284V214Z" fill="#FEFEFE"/>
<path d="M233.557 278.409H233.55C233.371 278.408 233.195 278.369 233.033 278.295C232.871 278.22 232.726 278.112 232.609 277.977L225.912 270.284C225.803 270.159 225.72 270.015 225.667 269.858C225.614 269.701 225.592 269.535 225.604 269.37C225.615 269.205 225.659 269.044 225.732 268.896C225.806 268.748 225.908 268.616 226.032 268.507C226.157 268.399 226.302 268.316 226.459 268.263C226.615 268.211 226.781 268.189 226.946 268.201C227.111 268.212 227.272 268.256 227.42 268.33C227.568 268.404 227.7 268.506 227.808 268.631L233.568 275.248L250.861 255.839C250.97 255.716 251.103 255.616 251.252 255.544C251.401 255.472 251.562 255.43 251.727 255.421C251.892 255.411 252.057 255.434 252.213 255.488C252.368 255.543 252.512 255.627 252.635 255.737C252.759 255.847 252.859 255.98 252.931 256.129C253.003 256.278 253.044 256.439 253.054 256.604C253.063 256.769 253.04 256.934 252.986 257.09C252.932 257.246 252.847 257.389 252.738 257.513L234.496 277.988C234.378 278.121 234.233 278.227 234.071 278.299C233.91 278.372 233.734 278.409 233.557 278.409Z" fill="#F9A826"/>
<path d="M233.71 291.868C228.4 291.868 223.307 289.757 219.551 286C215.796 282.243 213.687 277.148 213.687 271.835C213.687 266.522 215.796 261.427 219.551 257.67C223.307 253.913 228.4 251.802 233.71 251.802C233.893 251.802 234.069 251.875 234.199 252.005C234.328 252.134 234.401 252.31 234.401 252.493C234.401 252.676 234.328 252.852 234.199 252.981C234.069 253.111 233.893 253.184 233.71 253.184C230.023 253.184 226.419 254.278 223.353 256.327C220.287 258.377 217.898 261.289 216.487 264.697C215.076 268.106 214.707 271.856 215.426 275.474C216.145 279.092 217.921 282.415 220.528 285.023C223.135 287.632 226.457 289.408 230.073 290.128C233.69 290.847 237.438 290.478 240.844 289.066C244.251 287.655 247.163 285.264 249.211 282.197C251.26 279.13 252.353 275.524 252.353 271.835C252.353 271.652 252.426 271.476 252.555 271.346C252.685 271.217 252.86 271.144 253.043 271.144C253.226 271.144 253.402 271.217 253.532 271.346C253.661 271.476 253.734 271.652 253.734 271.835C253.728 277.146 251.616 282.238 247.862 285.993C244.109 289.749 239.019 291.862 233.71 291.868Z" fill="#3F3D56"/>
<path d="M367.179 261.187C366.53 260.406 366.059 259.493 365.801 258.511C365.543 257.529 365.503 256.502 365.684 255.503C365.865 254.503 366.263 253.556 366.85 252.728C367.437 251.899 368.198 251.209 369.08 250.707L364.576 226.436L376.388 231.425L378.855 253.707C379.6 255.246 379.756 257.004 379.292 258.65C378.828 260.295 377.777 261.713 376.338 262.635C374.898 263.557 373.171 263.919 371.483 263.652C369.795 263.385 368.264 262.508 367.179 261.187Z" fill="#9E616A"/>
<path d="M257.668 261.187C258.318 260.406 258.788 259.493 259.046 258.511C259.305 257.529 259.345 256.502 259.163 255.503C258.982 254.503 258.584 253.556 257.997 252.728C257.41 251.899 256.649 251.209 255.767 250.707L260.272 226.436L248.459 231.425L245.992 253.707C245.247 255.246 245.091 257.004 245.555 258.65C246.019 260.295 247.071 261.713 248.51 262.635C249.949 263.557 251.676 263.919 253.364 263.652C255.052 263.385 256.584 262.508 257.668 261.187Z" fill="#9E616A"/>
<path d="M301.621 419.879H293.156L289.129 387.214H301.623L301.621 419.879Z" fill="#9E616A"/>
<path d="M303.78 428.089L276.485 428.088V427.742C276.486 424.923 277.605 422.22 279.597 420.227C281.59 418.234 284.292 417.114 287.109 417.114L303.781 417.114L303.78 428.089Z" fill="#2F2E41"/>
<path d="M336.835 419.879H328.37L324.343 387.214H336.836L336.835 419.879Z" fill="#9E616A"/>
<path d="M338.994 428.089L311.699 428.088V427.742C311.699 424.923 312.819 422.22 314.811 420.227C316.803 418.234 319.506 417.114 322.323 417.114L338.994 417.114L338.994 428.089Z" fill="#2F2E41"/>
<path d="M286.474 222.456L275.484 234.568L280.317 325.259L288.602 412.076H303.697L317.602 257.047L323.792 412.076H339.972L358.958 229.862L286.474 222.456Z" fill="#2F2E41"/>
<path d="M356.268 117.111L326.923 98.8057L322.781 88.444H295.347L292.4 98.1149L262.02 116.766L274.103 169.611L275.484 234.545C275.484 234.545 322.435 262.867 359.03 231.091L344.185 155.45L356.268 117.111Z" fill="#CACACA"/>
<path d="M271.341 117.802L262.02 116.766C262.02 116.766 252.698 124.019 251.317 139.907C249.936 155.795 251.317 186.008 251.317 186.008L245.794 244.906L257.532 245.597L272.722 186.881L274.103 159.649L271.341 117.802Z" fill="#CACACA"/>
<path d="M346.602 117.802L355.923 116.766C355.923 116.766 365.244 124.019 366.625 139.907C368.006 155.795 373.53 186.008 373.53 186.008L379.054 244.906L367.316 245.597L352.126 186.881L343.84 159.649L346.602 117.802Z" fill="#CACACA"/>
<path d="M326.637 69.3314C332.637 58.3508 328.603 44.5834 317.628 38.5809C306.652 32.5784 292.891 36.6139 286.891 47.5944C280.891 58.5749 284.925 72.3424 295.901 78.3449C306.876 84.3474 320.637 80.3119 326.637 69.3314Z" fill="#9E616A"/>
<path d="M332.636 58.8998C332.883 57.4994 332.594 56.0573 331.825 54.8611C332.565 53.6722 333.081 52.3571 333.346 50.9816C333.962 46.8601 330.807 45.3502 328.774 42.2376C327.891 40.8871 328.291 40.3535 328.241 38.9184C328.157 36.9806 327.534 35.1048 326.441 33.5028C325.185 31.4194 323.844 29.2473 321.736 27.8933C317.308 25.0481 311.636 26.9394 306.562 25.7255C304.325 25.1904 302.237 24.0515 300.007 23.4809C297.777 22.9103 295.151 23.0583 293.859 24.6902C293.262 25.4435 293.023 26.425 292.425 27.177C291.235 28.6717 288.978 28.9213 287.141 29.6703C283.079 31.3265 280.988 35.7075 281.077 40.0328C281.104 40.9391 281.204 41.8418 281.376 42.732C280.671 44.3796 280.327 46.1592 280.367 47.951C280.456 52.2762 282.382 56.5488 284.685 60.4918C285.006 59.2587 285.451 58.0615 286.014 56.9185C286.173 56.5209 286.438 56.1743 286.78 55.9164C287.562 55.4152 288.679 55.7904 289.668 55.8298C291.717 55.9114 293.346 54.4662 294.31 52.8505C295.274 51.2348 295.805 49.373 296.91 47.8476C297.139 47.4693 297.449 47.1471 297.818 46.9046C298.187 46.662 298.606 46.5053 299.044 46.446C299.813 46.4787 300.56 46.71 301.214 47.1173C304.549 48.8274 307.995 50.6851 311.651 50.9155C312.903 50.8844 314.155 50.9912 315.383 51.2342C318.153 52.0337 319.798 54.9722 320.159 57.6434C320.519 60.3147 319.972 62.947 320.188 65.6193C320.405 68.2916 321.687 71.2841 324.335 72.4637C324.613 72.6239 324.944 72.6676 325.254 72.5854C325.458 72.4749 325.619 72.3006 325.714 72.0894L330.673 63.5512C331.615 62.139 332.282 60.5605 332.636 58.8998Z" fill="#2F2E41"/>
</svg>
